<?xml version="1.0" encoding="utf-8"?>
<!-- Svg Vector Icons : http://www.onlinewebfonts.com/icon -->
<!DOCTYPE svg PUBLIC "-//W3C//DTD SVG 1.1//EN" "http://www.w3.org/Graphics/SVG/1.1/DTD/svg11.dtd">
<svg version="1.1" xmlns="http://www.w3.org/2000/svg" xmlns:xlink="http://www.w3.org/1999/xlink" x="0px" y="0px" viewBox="0 0 256 256" enable-background="new 0 0 256 256" xml:space="preserve">
<metadata> Svg Vector Icons : http://www.onlinewebfonts.com/icon </metadata>
<g><g><path fill="#000000" d="M86.7,135.7c0-1.8-0.6-3.5-0.6-5.9c0-23,18.3-41.3,41.3-41.3c2.4,0,4.7,0,6.5,0.6l24.8-24.2c-10-2.4-20.1-3.5-30.7-3.5c-50.2,0-93.8,27.7-118,67.9c10,16.5,23.6,31.3,40.1,42.5L86.7,135.7z M200.6,83.2l-34.2,33c1.8,4.1,2.4,8.9,2.4,13.6c0,23-18.3,41.3-41.3,41.3c-5.3,0-10-1.2-14.8-3l-23,23c12.4,3.5,24.8,5.9,38.4,5.9c50.2,0,93.8-27.7,118-67.9C234.8,110.3,218.9,94.4,200.6,83.2z M142.2,140.4l-4.7,4.1C139.2,143.3,140.4,142.2,142.2,140.4z M199.4,43L38.9,200l13,13L212.4,55.4L199.4,43z"/></g></g>
</svg>